HIERARCHY
ROOT Hips
{
	OFFSET -3.958830 18.904000 13.208200
	CHANNELS 6 Xposition Yposition Zposition Zrotation Yrotation Xrotation 
	JOINT LHipJoint
	{
		OFFSET 0.000000 0.000000 0.000000
		CHANNELS 3 Zrotation Yrotation Xrotation
		JOINT LeftUpLeg
		{
			OFFSET 1.800000 -1.400000 0.085000
			CHANNELS 3 Zrotation Yrotation Xrotation
			JOINT LeftLeg
			{
				OFFSET 2.215000 -6.000000 0.000000
				CHANNELS 3 Zrotation Yrotation Xrotation
				JOINT LeftFoot
				{
					OFFSET 2.500000 -6.900000 0.000000
					CHANNELS 3 Zrotation Yrotation Xrotation
					JOINT LeftToeBase
					{
						OFFSET 0.200000 -0.500000 1.950000
						CHANNELS 3 Zrotation Yrotation Xrotation
						End Site
						{
							OFFSET 0.000000 0.000000 0.000000
						}
					}
				}
			}
		}
	}
	JOINT RHipJoint
	{
		OFFSET 0.000000 0.000000 0.000000
		CHANNELS 3 Zrotation Yrotation Xrotation
		JOINT RightUpLeg
		{
			OFFSET -1.800000 -1.400000 0.085000
			CHANNELS 3 Zrotation Yrotation Xrotation
			JOINT RightLeg
			{
				OFFSET -2.215000 -6.000000 0.000000
				CHANNELS 3 Zrotation Yrotation Xrotation
				JOINT RightFoot
				{
					OFFSET -2.500000 -6.900000 0.000000
					CHANNELS 3 Zrotation Yrotation Xrotation
					JOINT RightToeBase
					{
						OFFSET -0.200000 -0.500000 1.950000
						CHANNELS 3 Zrotation Yrotation Xrotation
						End Site
						{
							OFFSET 0.000000 0.000000 0.000000
						}
					}
				}
			}
		}
	}
	JOINT LowerBack
	{
		OFFSET 0.000000 0.000000 0.000000
		CHANNELS 3 Zrotation Yrotation Xrotation
		JOINT Spine
		{
			OFFSET -0.087000 1.940000 -0.288900
			CHANNELS 3 Zrotation Yrotation Xrotation
			JOINT Spine1
			{
				OFFSET 0.000000 1.950000 0.060000
				CHANNELS 3 Zrotation Yrotation Xrotation
				JOINT Neck
				{
					OFFSET 0.000000 0.000000 0.000000
					CHANNELS 3 Zrotation Yrotation Xrotation
					JOINT Neck1
					{
						OFFSET 0.000000 1.600000 0.340000
						CHANNELS 3 Zrotation Yrotation Xrotation
						JOINT Head
						{
							OFFSET 0.000000 1.667000 -0.240000
							CHANNELS 3 Zrotation Yrotation Xrotation
							End Site
							{
								OFFSET 0.000000 0.000000 0.000000
							}
						}
					}
				}
				JOINT LeftShoulder
				{
					OFFSET 0.000000 0.000000 0.000000
					CHANNELS 3 Zrotation Yrotation Xrotation
					JOINT LeftArm
					{
						OFFSET 2.700000 1.550000 -0.730000
						CHANNELS 3 Zrotation Yrotation Xrotation
						JOINT LeftForeArm
						{
							OFFSET 5.450000 0.000000 0.000000
							CHANNELS 3 Zrotation Yrotation Xrotation
							JOINT LeftHand
							{
								OFFSET 3.450000 0.000000 0.000000
								CHANNELS 3 Zrotation Yrotation Xrotation
								JOINT LeftHandIndex1
								{
									OFFSET 0.750000 0.000000 0.000000
									CHANNELS 3 Zrotation Yrotation Xrotation
									End Site
									{
										OFFSET 0.000000 0.000000 0.000000
									}
								}
							}
						}
					}
				}
				JOINT RightShoulder
				{
					OFFSET 0.000000 0.000000 0.000000
					CHANNELS 3 Zrotation Yrotation Xrotation
					JOINT RightArm
					{
						OFFSET -2.700000 1.550000 -0.730000
						CHANNELS 3 Zrotation Yrotation Xrotation
						JOINT RightForeArm
						{
							OFFSET -5.450000 0.000000 0.000000
							CHANNELS 3 Zrotation Yrotation Xrotation
							JOINT RightHand
							{
								OFFSET -3.450000 0.000000 0.000000
								CHANNELS 3 Zrotation Yrotation Xrotation
								JOINT RightHandIndex1
								{
									OFFSET -0.750000 0.000000 0.000000
									CHANNELS 3 Zrotation Yrotation Xrotation
									End Site
									{
										OFFSET 0.000000 0.000000 0.000000
									}
								}
							}
						}
					}
				}
			}
		}
	}
}
MOTION
Frames: 4
Frame Time: 0.016667
-1.543580 16.237350 8.389080 2.110266 -44.998965 3.588724 -15.314050 14.165411 3.720616 13.204083 -2.295524 3.336778 -14.478874 7.688880 5.630734 0.074318 6.128977 2.496962 0.032550 -0.138290 0.296010 17.953809 -10.020074 2.608330 -11.189507 0.598670 -24.730433 4.176632 -3.398553 9.548059 0.130731 -1.919322 3.529947 0.050750 -0.015390 0.061930 -2.561508 -4.448562 -7.917579 9.573376 -6.569923 7.508386 16.265088 -4.860732 -8.488226 -7.501558 1.982995 -11.773063 0.932172 -12.210247 23.067888 -9.120020 -7.474870 -17.010840 14.236165 -11.330152 -3.727028 41.972416 -19.388425 -6.509469 86.040282 -59.071671 -39.868013 -4.102917 2.376919 0.346190 -0.000490 0.049380 -0.162650 1.144625 4.620102 11.722975 36.483031 -21.345873 -5.866833 -14.286898 0.525159 1.162414 2.735388 -1.044815 -0.243970 0.237730 0.156410 -0.221490 
-1.607590 16.272430 8.433180 2.649588 -45.260281 3.826843 -15.296734 14.380823 3.722738 14.576071 -2.547670 2.813994 -13.539883 7.912415 6.760046 0.189390 6.124936 2.537259 -0.059430 -0.250370 0.235300 17.917314 -10.010305 2.646758 -11.208870 0.741330 -24.655754 2.706523 -2.984735 8.755886 0.179457 -1.787959 3.636047 -0.049190 0.025410 0.042060 -2.446447 -4.755096 -8.069272 10.085685 -6.847808 6.055359 16.381737 -4.402636 -10.657119 -6.361299 1.092084 -12.647360 -1.315144 -8.724698 25.883170 -8.906750 -4.861060 -12.333540 14.217338 -10.666270 -2.852994 42.756453 -15.651720 -4.564221 78.658219 -59.467512 -33.767640 -4.314285 2.631943 0.301110 0.018110 0.016340 -0.141970 -0.750721 4.561746 12.177439 29.908114 -22.888806 -4.796127 -7.835577 -0.924307 0.837103 2.825827 -0.896492 -0.243120 0.200090 0.146160 -0.194540 
-1.661320 16.297740 8.472310 3.941101 -43.346267 3.301980 -15.297985 14.388785 3.579117 15.574566 -2.637423 2.169473 -12.060670 7.655710 6.995116 0.203988 5.983506 2.602776 0.019020 -0.084770 0.222510 17.947918 -9.960623 2.533826 -12.654238 0.391137 -23.885486 2.849998 -3.054197 8.547422 0.148233 -1.998145 3.566174 0.052270 0.056020 0.072180 -2.576540 -4.925090 -7.753284 10.522823 -7.619491 4.808724 14.970878 -5.481420 -10.402130 -6.087667 -0.530529 -11.892563 -2.834390 -3.099756 21.740333 -10.019170 0.562050 -12.491020 13.984071 -7.738874 -2.433313 45.171685 -12.288927 -3.094956 71.495153 -52.676439 -25.397067 -4.532635 2.950328 0.178830 0.104360 -0.007010 -0.080740 -0.512101 2.535563 10.791984 26.116602 -23.605393 -4.577911 -12.682770 1.934401 0.618760 2.785636 -1.135565 -0.190140 0.154550 0.076920 -0.167480 
-1.700720 16.302220 8.490300 5.498238 -42.510254 1.819998 -15.189183 14.419503 3.622947 16.086623 -2.658765 2.211748 -11.337589 7.345082 6.115108 0.216504 5.881252 2.652864 0.015630 -0.077360 0.193350 18.016992 -10.047650 2.505268 -14.419250 -0.087449 -23.602230 3.457455 -3.429202 9.454337 0.140971 -2.170289 3.510131 0.057460 0.069770 0.039050 -2.853143 -4.941323 -7.695078 12.395973 -8.642921 4.768378 9.711545 -5.265592 -13.251840 -5.742996 -1.986258 -11.947713 -5.545458 -0.154607 22.713074 -9.069710 2.177950 -10.928460 13.729664 -5.682988 -1.706350 48.062085 -12.210785 -1.071707 62.425348 -47.222611 -17.796069 -4.450533 3.047426 0.162890 0.104440 -0.032850 -0.063040 -0.817962 1.272103 10.104754 23.570219 -24.690772 -4.195420 -10.127343 0.967220 0.494660 2.826295 -1.061270 -0.200650 0.149280 0.061310 -0.158350 
